<?xml version="1.0" encoding="UTF-8" standalone="no"?>
<!DOCTYPE svg PUBLIC "-//W3C//DTD SVG 1.1//EN"
 "http://www.w3.org/Graphics/SVG/1.1/DTD/svg11.dtd">
<!-- Generated by graphviz version 14.0.2 (20251019.1705)
 -->
<!-- Title: BiologicalCreatureArchitecture Pages: 1 -->
<svg width="672pt" height="838pt"
 viewBox="0.00 0.00 672.00 838.00" xmlns="http://www.w3.org/2000/svg" xmlns:xlink="http://www.w3.org/1999/xlink">
<g id="graph0" class="graph" transform="scale(1 1) rotate(0) translate(4 834.25)">
<title>BiologicalCreatureArchitecture</title>
<polygon fill="#f8f9fa" stroke="none" points="-4,4 -4,-834.25 668.38,-834.25 668.38,4 -4,4"/>
<text xml:space="preserve" text-anchor="middle" x="332.19" y="-814.85" font-family="Arial" font-size="12.00" fill="#2c3e50">Multi&#45;Tier Object: The Organic Software Creature</text>
<!-- L4 -->
<g id="node1" class="node">
<title>L4</title>
<defs>
<linearGradient id="node1_l_0" gradientUnits="userSpaceOnUse" x1="86.75" y1="-645.5" x2="86.75" y2="-556.5" >
<stop offset="0" style="stop-color:#e8f4f8;stop-opacity:1.;"/>
<stop offset="1" style="stop-color:#a8d5e0;stop-opacity:1.;"/>
</linearGradient>
</defs>
<path fill="url(#node1_l_0)" stroke="#2e86ab" d="M161.5,-645.5C161.5,-645.5 12,-645.5 12,-645.5 6,-645.5 0,-639.5 0,-633.5 0,-633.5 0,-568.5 0,-568.5 0,-562.5 6,-556.5 12,-556.5 12,-556.5 161.5,-556.5 161.5,-556.5 167.5,-556.5 173.5,-562.5 173.5,-568.5 173.5,-568.5 173.5,-633.5 173.5,-633.5 173.5,-639.5 167.5,-645.5 161.5,-645.5"/>
<text xml:space="preserve" text-anchor="start" x="8" y="-631.05" font-family="Arial" font-size="11.00" fill="#1e5f74">L4: Conscious Mind</text>
<text xml:space="preserve" text-anchor="start" x="8" y="-617.55" font-family="Arial" font-size="11.00" fill="#1e5f74">Orchestration &amp; Unified Behavior</text>
<text xml:space="preserve" text-anchor="start" x="8" y="-604.05" font-family="Arial" font-size="11.00" fill="#1e5f74">• Factory Methods</text>
<text xml:space="preserve" text-anchor="start" x="8" y="-590.55" font-family="Arial" font-size="11.00" fill="#1e5f74">• Error Aggregation</text>
<text xml:space="preserve" text-anchor="start" x="8" y="-577.05" font-family="Arial" font-size="11.00" fill="#1e5f74">• Component Ownership</text>
<text xml:space="preserve" text-anchor="middle" x="86.75" y="-563.55" font-family="Arial" font-size="11.00" fill="#1e5f74">• API Design</text>
</g>
<!-- L3 -->
<g id="node2" class="node">
<title>L3</title>
<defs>
<linearGradient id="node2_l_1" gradientUnits="userSpaceOnUse" x1="204.75" y1="-460" x2="204.75" y2="-371" >
<stop offset="0" style="stop-color:#f0f9e8;stop-opacity:1.;"/>
<stop offset="1" style="stop-color:#c8e6c9;stop-opacity:1.;"/>
</linearGradient>
</defs>
<path fill="url(#node2_l_1)" stroke="#4caf50" d="M279.88,-460C279.88,-460 129.62,-460 129.62,-460 123.62,-460 117.62,-454 117.62,-448 117.62,-448 117.62,-383 117.62,-383 117.62,-377 123.62,-371 129.62,-371 129.62,-371 279.88,-371 279.88,-371 285.88,-371 291.88,-377 291.88,-383 291.88,-383 291.88,-448 291.88,-448 291.88,-454 285.88,-460 279.88,-460"/>
<text xml:space="preserve" text-anchor="start" x="125.62" y="-445.55" font-family="Arial" font-size="11.00" fill="#2e7d32">L3: Nervous System</text>
<text xml:space="preserve" text-anchor="start" x="125.62" y="-432.05" font-family="Arial" font-size="11.00" fill="#2e7d32">Stateful Intelligence &amp; Adaptation</text>
<text xml:space="preserve" text-anchor="start" x="125.62" y="-418.55" font-family="Arial" font-size="11.00" fill="#2e7d32">• Multiple Components</text>
<text xml:space="preserve" text-anchor="start" x="125.62" y="-405.05" font-family="Arial" font-size="11.00" fill="#2e7d32">• Atomic State Management</text>
<text xml:space="preserve" text-anchor="start" x="125.62" y="-391.55" font-family="Arial" font-size="11.00" fill="#2e7d32">• Business Logic</text>
<text xml:space="preserve" text-anchor="middle" x="204.75" y="-378.05" font-family="Arial" font-size="11.00" fill="#2e7d32">• Validation &amp; Error Handling</text>
</g>
<!-- L4&#45;&gt;L3 -->
<g id="edge1" class="edge">
<title>L4&#45;&gt;L3</title>
<path fill="none" stroke="#2e86ab" stroke-width="2" d="M115.01,-556.05C131.37,-530.61 152.11,-498.36 169.52,-471.28"/>
<polygon fill="#2e86ab" stroke="#2e86ab" stroke-width="2" points="172.41,-473.26 174.88,-462.96 166.52,-469.48 172.41,-473.26"/>
<text xml:space="preserve" text-anchor="middle" x="175" y="-504.95" font-family="Arial" font-size="9.00" fill="#2e86ab">owns by value</text>
</g>
<!-- L2 -->
<g id="node3" class="node">
<title>L2</title>
<defs>
<linearGradient id="node3_l_2" gradientUnits="userSpaceOnUse" x1="301.75" y1="-274.5" x2="301.75" y2="-185.5" >
<stop offset="0" style="stop-color:#fff3e0;stop-opacity:1.;"/>
<stop offset="1" style="stop-color:#ffcc80;stop-opacity:1.;"/>
</linearGradient>
</defs>
<path fill="url(#node3_l_2)" stroke="#ff9800" d="M397.88,-274.5C397.88,-274.5 205.62,-274.5 205.62,-274.5 199.62,-274.5 193.62,-268.5 193.62,-262.5 193.62,-262.5 193.62,-197.5 193.62,-197.5 193.62,-191.5 199.62,-185.5 205.62,-185.5 205.62,-185.5 397.88,-185.5 397.88,-185.5 403.88,-185.5 409.88,-191.5 409.88,-197.5 409.88,-197.5 409.88,-262.5 409.88,-262.5 409.88,-268.5 403.88,-274.5 397.88,-274.5"/>
<text xml:space="preserve" text-anchor="start" x="201.62" y="-260.05" font-family="Arial" font-size="11.00" fill="#e65100">L2: Cellular Membrane</text>
<text xml:space="preserve" text-anchor="start" x="201.62" y="-246.55" font-family="Arial" font-size="11.00" fill="#e65100">Data Contracts &amp; Environmental Interface</text>
<text xml:space="preserve" text-anchor="start" x="201.62" y="-233.05" font-family="Arial" font-size="11.00" fill="#e65100">• Immutable DTOs</text>
<text xml:space="preserve" text-anchor="start" x="201.62" y="-219.55" font-family="Arial" font-size="11.00" fill="#e65100">• Enum Mappers</text>
<text xml:space="preserve" text-anchor="start" x="201.62" y="-206.05" font-family="Arial" font-size="11.00" fill="#e65100">• Validation Gates</text>
<text xml:space="preserve" text-anchor="middle" x="301.75" y="-192.55" font-family="Arial" font-size="11.00" fill="#e65100">• Thread&#45;Safe Boundaries</text>
</g>
<!-- L3&#45;&gt;L2 -->
<g id="edge2" class="edge">
<title>L3&#45;&gt;L2</title>
<path fill="none" stroke="#4caf50" stroke-width="2" d="M227.98,-370.55C241.37,-345.22 258.32,-313.15 272.6,-286.14"/>
<polygon fill="#4caf50" stroke="#4caf50" stroke-width="2" points="275.54,-288.06 277.12,-277.59 269.36,-284.79 275.54,-288.06"/>
<text xml:space="preserve" text-anchor="middle" x="283.25" y="-319.45" font-family="Arial" font-size="9.00" fill="#4caf50">receives DTOs</text>
</g>
<!-- L1 -->
<g id="node4" class="node">
<title>L1</title>
<defs>
<linearGradient id="node4_l_3" gradientUnits="userSpaceOnUse" x1="399.75" y1="-89" x2="399.75" y2="0" >
<stop offset="0" style="stop-color:#fce4ec;stop-opacity:1.;"/>
<stop offset="1" style="stop-color:#f8bbd9;stop-opacity:1.;"/>
</linearGradient>
</defs>
<path fill="url(#node4_l_3)" stroke="#e91e63" d="M493.62,-89C493.62,-89 305.88,-89 305.88,-89 299.88,-89 293.88,-83 293.88,-77 293.88,-77 293.88,-12 293.88,-12 293.88,-6 299.88,0 305.88,0 305.88,0 493.62,0 493.62,0 499.62,0 505.62,-6 505.62,-12 505.62,-12 505.62,-77 505.62,-77 505.62,-83 499.62,-89 493.62,-89"/>
<text xml:space="preserve" text-anchor="start" x="301.88" y="-74.55" font-family="Arial" font-size="11.00" fill="#880e4f">L1: Genetic Code</text>
<text xml:space="preserve" text-anchor="start" x="301.88" y="-61.05" font-family="Arial" font-size="11.00" fill="#880e4f">Pure Algorithmic DNA &amp; Transformations</text>
<text xml:space="preserve" text-anchor="start" x="301.88" y="-47.55" font-family="Arial" font-size="11.00" fill="#880e4f">• Stateless Functions</text>
<text xml:space="preserve" text-anchor="start" x="301.88" y="-34.05" font-family="Arial" font-size="11.00" fill="#880e4f">• Mathematical Purity</text>
<text xml:space="preserve" text-anchor="start" x="301.88" y="-20.55" font-family="Arial" font-size="11.00" fill="#880e4f">• Deterministic Output</text>
<text xml:space="preserve" text-anchor="middle" x="399.75" y="-7.05" font-family="Arial" font-size="11.00" fill="#880e4f">• Lock&#45;Free Operations</text>
</g>
<!-- L2&#45;&gt;L1 -->
<g id="edge3" class="edge">
<title>L2&#45;&gt;L1</title>
<path fill="none" stroke="#ff9800" stroke-width="2" d="M325.22,-185.05C338.75,-159.72 355.88,-127.65 370.3,-100.64"/>
<polygon fill="#ff9800" stroke="#ff9800" stroke-width="2" points="373.25,-102.55 374.87,-92.08 367.07,-99.25 373.25,-102.55"/>
<text xml:space="preserve" text-anchor="middle" x="392" y="-133.95" font-family="Arial" font-size="9.00" fill="#ff9800">feeds validated data</text>
</g>
<!-- concurrency_dna -->
<g id="node5" class="node">
<title>concurrency_dna</title>
<defs>
<linearGradient id="node5_l_4" gradientUnits="userSpaceOnUse" x1="320.75" y1="-794.5" x2="320.75" y2="-746" >
<stop offset="0" style="stop-color:#f3e5f5;stop-opacity:1.;"/>
<stop offset="1" style="stop-color:#ce93d8;stop-opacity:1.;"/>
</linearGradient>
</defs>
<polygon fill="url(#node5_l_4)" stroke="#7b1fa2" points="410.88,-794.5 224.62,-794.5 224.62,-746 416.88,-746 416.88,-788.5 410.88,-794.5"/>
<polyline fill="none" stroke="#7b1fa2" points="410.88,-794.5 410.88,-788.5"/>
<polyline fill="none" stroke="#7b1fa2" points="416.88,-788.5 410.88,-788.5"/>
<text xml:space="preserve" text-anchor="start" x="232.62" y="-780.05" font-family="Arial" font-size="11.00" fill="#4a148c">Concurrency DNA Inheritance</text>
<text xml:space="preserve" text-anchor="start" x="232.62" y="-766.55" font-family="Arial" font-size="11.00" fill="#4a148c">L1→L2→L3→L4</text>
<text xml:space="preserve" text-anchor="middle" x="320.75" y="-753.05" font-family="Arial" font-size="11.00" fill="#4a148c">Zero Contention → Linear Scalability</text>
</g>
<!-- concurrency_dna&#45;&gt;L4 -->
<g id="edge7" class="edge">
<title>concurrency_dna&#45;&gt;L4</title>
<path fill="none" stroke="#7b1fa2" stroke-width="2" stroke-dasharray="5,2" d="M287.72,-745.64C254.32,-721.77 201.62,-684.1 158.56,-653.33"/>
<polygon fill="#7b1fa2" stroke="#7b1fa2" stroke-width="2" points="160.76,-650.59 150.59,-647.63 156.69,-656.29 160.76,-650.59"/>
</g>
<!-- concurrency_dna&#45;&gt;L3 -->
<g id="edge6" class="edge">
<title>concurrency_dna&#45;&gt;L3</title>
<path fill="none" stroke="#7b1fa2" stroke-width="2" stroke-dasharray="5,2" d="M312.96,-745.56C294.73,-690.13 248.91,-550.79 223.12,-472.36"/>
<polygon fill="#7b1fa2" stroke="#7b1fa2" stroke-width="2" points="226.55,-471.6 220.11,-463.2 219.91,-473.79 226.55,-471.6"/>
</g>
<!-- concurrency_dna&#45;&gt;L2 -->
<g id="edge5" class="edge">
<title>concurrency_dna&#45;&gt;L2</title>
<path fill="none" stroke="#7b1fa2" stroke-width="2" stroke-dasharray="5,2" d="M329.1,-745.53C333.94,-729.6 339.04,-708.03 338.75,-688.5 336.31,-523.56 354.16,-480.33 327.75,-317.5 326.14,-307.6 323.72,-297.24 320.98,-287.27"/>
<polygon fill="#7b1fa2" stroke="#7b1fa2" stroke-width="2" points="324.38,-286.46 318.23,-277.83 317.66,-288.41 324.38,-286.46"/>
</g>
<!-- concurrency_dna&#45;&gt;L1 -->
<g id="edge4" class="edge">
<title>concurrency_dna&#45;&gt;L1</title>
<path fill="none" stroke="#7b1fa2" stroke-width="2" stroke-dasharray="5,2" d="M375.3,-745.62C427.31,-718.97 497.75,-670.28 497.75,-602 497.75,-602 497.75,-602 497.75,-229 497.75,-181.38 471.75,-134.13 446.53,-99.51"/>
<polygon fill="#7b1fa2" stroke="#7b1fa2" stroke-width="2" points="449.39,-97.48 440.58,-91.6 443.8,-101.69 449.39,-97.48"/>
</g>
<!-- legend -->
<g id="node6" class="node">
<title>legend</title>
<polygon fill="#ffffff" stroke="#616161" points="664.38,-808 475.12,-808 475.12,-732.5 664.38,-732.5 664.38,-808"/>
<text xml:space="preserve" text-anchor="start" x="483.12" y="-793.55" font-family="Arial" font-size="11.00" fill="#424242">Biological Metaphor:</text>
<text xml:space="preserve" text-anchor="start" x="483.12" y="-780.05" font-family="Arial" font-size="11.00" fill="#424242">• L1: Genetic Code (DNA)</text>
<text xml:space="preserve" text-anchor="start" x="483.12" y="-766.55" font-family="Arial" font-size="11.00" fill="#424242">• L2: Cellular Membrane (Boundary)</text>
<text xml:space="preserve" text-anchor="start" x="483.12" y="-753.05" font-family="Arial" font-size="11.00" fill="#424242">• L3: Nervous System (Intelligence)</text>
<text xml:space="preserve" text-anchor="middle" x="569.75" y="-739.55" font-family="Arial" font-size="11.00" fill="#424242">• L4: Conscious Mind (Executive)</text>
</g>
</g>
</svg>
