<?xml version="1.0" encoding="UTF-8" standalone="no"?>
<!DOCTYPE svg PUBLIC "-//W3C//DTD SVG 1.1//EN"
 "http://www.w3.org/Graphics/SVG/1.1/DTD/svg11.dtd">
<!-- Generated by graphviz version 14.0.2 (20251019.1705)
 -->
<!-- Title: L3NervousSystem Pages: 1 -->
<svg width="1050pt" height="588pt"
 viewBox="0.00 0.00 1050.00 588.00" xmlns="http://www.w3.org/2000/svg" xmlns:xlink="http://www.w3.org/1999/xlink">
<g id="graph0" class="graph" transform="scale(1 1) rotate(0) translate(4 583.98)">
<title>L3NervousSystem</title>
<polygon fill="#f0f4f0" stroke="none" points="-4,4 -4,-583.98 1045.75,-583.98 1045.75,4 -4,4"/>
<text xml:space="preserve" text-anchor="middle" x="520.88" y="-564.58" font-family="Arial" font-size="12.00" fill="#2e7d32">L3 Nervous System: Multi&#45;Component Neural Architecture</text>
<!-- l2_input -->
<g id="node1" class="node">
<title>l2_input</title>
<polygon fill="#fff3e0" stroke="#ff9800" stroke-width="2" points="655.38,-539.73 652.38,-543.73 631.38,-543.73 628.38,-539.73 560.62,-539.73 560.62,-483.73 655.38,-483.73 655.38,-539.73"/>
<text xml:space="preserve" text-anchor="start" x="568.62" y="-526.23" font-family="Arial" font-size="10.00" fill="#e65100">L2: DTOs</text>
<text xml:space="preserve" text-anchor="start" x="568.62" y="-514.23" font-family="Arial" font-size="10.00" fill="#e65100">Config Params</text>
<text xml:space="preserve" text-anchor="start" x="568.62" y="-502.23" font-family="Arial" font-size="10.00" fill="#e65100">Optional Defaults</text>
<text xml:space="preserve" text-anchor="middle" x="608" y="-490.23" font-family="Arial" font-size="10.00" fill="#e65100">Enums/Constants</text>
</g>
<!-- cognitive_center -->
<g id="node2" class="node">
<title>cognitive_center</title>
<path fill="#e8f5e8" stroke="#4caf50" stroke-width="2" d="M595.38,-383.23C595.38,-383.23 476.62,-383.23 476.62,-383.23 470.62,-383.23 464.62,-377.23 464.62,-371.23 464.62,-371.23 464.62,-327.23 464.62,-327.23 464.62,-321.23 470.62,-315.23 476.62,-315.23 476.62,-315.23 595.38,-315.23 595.38,-315.23 601.38,-315.23 607.38,-321.23 607.38,-327.23 607.38,-327.23 607.38,-371.23 607.38,-371.23 607.38,-377.23 601.38,-383.23 595.38,-383.23"/>
<text xml:space="preserve" text-anchor="start" x="472.62" y="-369.73" font-family="Arial" font-size="10.00" fill="#2e7d32">Cognitive Center</text>
<text xml:space="preserve" text-anchor="start" x="472.62" y="-357.73" font-family="Arial" font-size="10.00" fill="#2e7d32">• State: Reasoning</text>
<text xml:space="preserve" text-anchor="start" x="472.62" y="-345.73" font-family="Arial" font-size="10.00" fill="#2e7d32">• Validators: Logic coherence</text>
<text xml:space="preserve" text-anchor="start" x="472.62" y="-333.73" font-family="Arial" font-size="10.00" fill="#2e7d32">• Errors: Cognitive faults</text>
<text xml:space="preserve" text-anchor="middle" x="536" y="-321.73" font-family="Arial" font-size="10.00" fill="#2e7d32">• Atomic state management</text>
</g>
<!-- l2_input&#45;&gt;cognitive_center -->
<g id="edge1" class="edge">
<title>l2_input&#45;&gt;cognitive_center</title>
<path fill="none" stroke="#ff9800" stroke-width="2" d="M595.46,-482.77C584.67,-458.72 568.91,-423.58 556.32,-395.52"/>
<polygon fill="#ff9800" stroke="#ff9800" stroke-width="2" points="559.67,-394.43 552.38,-386.74 553.28,-397.3 559.67,-394.43"/>
<text xml:space="preserve" text-anchor="middle" x="581.47" y="-421.18" font-family="Arial" font-size="9.00">DTOs</text>
</g>
<!-- behavioral_center -->
<g id="node3" class="node">
<title>behavioral_center</title>
<path fill="#e8f5e8" stroke="#4caf50" stroke-width="2" d="M792.25,-383.23C792.25,-383.23 675.75,-383.23 675.75,-383.23 669.75,-383.23 663.75,-377.23 663.75,-371.23 663.75,-371.23 663.75,-327.23 663.75,-327.23 663.75,-321.23 669.75,-315.23 675.75,-315.23 675.75,-315.23 792.25,-315.23 792.25,-315.23 798.25,-315.23 804.25,-321.23 804.25,-327.23 804.25,-327.23 804.25,-371.23 804.25,-371.23 804.25,-377.23 798.25,-383.23 792.25,-383.23"/>
<text xml:space="preserve" text-anchor="start" x="671.75" y="-369.73" font-family="Arial" font-size="10.00" fill="#2e7d32">Behavioral Center</text>
<text xml:space="preserve" text-anchor="start" x="671.75" y="-357.73" font-family="Arial" font-size="10.00" fill="#2e7d32">• State: Actions</text>
<text xml:space="preserve" text-anchor="start" x="671.75" y="-345.73" font-family="Arial" font-size="10.00" fill="#2e7d32">• Validators: Action safety</text>
<text xml:space="preserve" text-anchor="start" x="671.75" y="-333.73" font-family="Arial" font-size="10.00" fill="#2e7d32">• Errors: Behavioral conflicts</text>
<text xml:space="preserve" text-anchor="middle" x="734" y="-321.73" font-family="Arial" font-size="10.00" fill="#2e7d32">• Independent validation</text>
</g>
<!-- l2_input&#45;&gt;behavioral_center -->
<g id="edge2" class="edge">
<title>l2_input&#45;&gt;behavioral_center</title>
<path fill="none" stroke="#ff9800" stroke-width="2" d="M629.95,-482.77C649.16,-458.29 677.4,-422.32 699.62,-394.02"/>
<polygon fill="#ff9800" stroke="#ff9800" stroke-width="2" points="702.21,-396.39 705.63,-386.36 696.7,-392.07 702.21,-396.39"/>
<text xml:space="preserve" text-anchor="middle" x="690.17" y="-421.18" font-family="Arial" font-size="9.00">DTOs</text>
</g>
<!-- adaptive_center -->
<g id="node4" class="node">
<title>adaptive_center</title>
<path fill="#e8f5e8" stroke="#4caf50" stroke-width="2" d="M384.62,-383.23C384.62,-383.23 255.38,-383.23 255.38,-383.23 249.38,-383.23 243.38,-377.23 243.38,-371.23 243.38,-371.23 243.38,-327.23 243.38,-327.23 243.38,-321.23 249.38,-315.23 255.38,-315.23 255.38,-315.23 384.62,-315.23 384.62,-315.23 390.62,-315.23 396.62,-321.23 396.62,-327.23 396.62,-327.23 396.62,-371.23 396.62,-371.23 396.62,-377.23 390.62,-383.23 384.62,-383.23"/>
<text xml:space="preserve" text-anchor="start" x="251.38" y="-369.73" font-family="Arial" font-size="10.00" fill="#2e7d32">Adaptive Center</text>
<text xml:space="preserve" text-anchor="start" x="251.38" y="-357.73" font-family="Arial" font-size="10.00" fill="#2e7d32">• State: Learning</text>
<text xml:space="preserve" text-anchor="start" x="251.38" y="-345.73" font-family="Arial" font-size="10.00" fill="#2e7d32">• Validators: Pattern recognition</text>
<text xml:space="preserve" text-anchor="start" x="251.38" y="-333.73" font-family="Arial" font-size="10.00" fill="#2e7d32">• Errors: Adaptation failures</text>
<text xml:space="preserve" text-anchor="middle" x="320" y="-321.73" font-family="Arial" font-size="10.00" fill="#2e7d32">• Component&#45;specific rules</text>
</g>
<!-- l2_input&#45;&gt;adaptive_center -->
<g id="edge3" class="edge">
<title>l2_input&#45;&gt;adaptive_center</title>
<path fill="none" stroke="#ff9800" stroke-width="2" d="M559.8,-483.86C514,-458.34 444.54,-419.63 392.14,-390.43"/>
<polygon fill="#ff9800" stroke="#ff9800" stroke-width="2" points="393.98,-387.45 383.54,-385.64 390.58,-393.56 393.98,-387.45"/>
<text xml:space="preserve" text-anchor="middle" x="466.99" y="-421.18" font-family="Arial" font-size="9.00">DTOs</text>
</g>
<!-- cognitive_validator -->
<g id="node5" class="node">
<title>cognitive_validator</title>
<ellipse fill="#f1f8e9" stroke="#66bb6a" stroke-width="2" cx="579" cy="-201.61" rx="75.48" ry="31.11"/>
<text xml:space="preserve" text-anchor="start" x="533.62" y="-210.11" font-family="Arial" font-size="10.00" fill="#388e3c">Component Validator</text>
<text xml:space="preserve" text-anchor="start" x="533.62" y="-198.11" font-family="Arial" font-size="10.00" fill="#388e3c">Logic Coherence</text>
<text xml:space="preserve" text-anchor="middle" x="579" y="-186.11" font-family="Arial" font-size="10.00" fill="#388e3c">Pattern Recognition</text>
</g>
<!-- cognitive_center&#45;&gt;cognitive_validator -->
<g id="edge4" class="edge">
<title>cognitive_center&#45;&gt;cognitive_validator</title>
<path fill="none" stroke="#4caf50" stroke-width="2" d="M545.97,-314.45C552.03,-293.95 559.82,-267.57 566.31,-245.59"/>
<polygon fill="#4caf50" stroke="#4caf50" stroke-width="2" points="569.63,-246.71 569.1,-236.13 562.91,-244.73 569.63,-246.71"/>
<text xml:space="preserve" text-anchor="middle" x="575.29" y="-270.68" font-family="Arial" font-size="9.00">Validate</text>
</g>
<!-- behavioral_validator -->
<g id="node7" class="node">
<title>behavioral_validator</title>
<ellipse fill="#f1f8e9" stroke="#66bb6a" stroke-width="2" cx="895" cy="-201.61" rx="81.32" ry="31.11"/>
<text xml:space="preserve" text-anchor="start" x="845.5" y="-210.11" font-family="Arial" font-size="10.00" fill="#388e3c">Component Validator</text>
<text xml:space="preserve" text-anchor="start" x="845.5" y="-198.11" font-family="Arial" font-size="10.00" fill="#388e3c">Action Safety</text>
<text xml:space="preserve" text-anchor="middle" x="895" y="-186.11" font-family="Arial" font-size="10.00" fill="#388e3c">Behavioral Constraints</text>
</g>
<!-- behavioral_center&#45;&gt;behavioral_validator -->
<g id="edge7" class="edge">
<title>behavioral_center&#45;&gt;behavioral_validator</title>
<path fill="none" stroke="#4caf50" stroke-width="2" d="M771.34,-314.45C796.13,-292.03 828.68,-262.59 854.16,-239.55"/>
<polygon fill="#4caf50" stroke="#4caf50" stroke-width="2" points="856.24,-242.39 861.31,-233.09 851.54,-237.2 856.24,-242.39"/>
<text xml:space="preserve" text-anchor="middle" x="835.83" y="-270.68" font-family="Arial" font-size="9.00">Validate</text>
</g>
<!-- adaptive_validator -->
<g id="node9" class="node">
<title>adaptive_validator</title>
<ellipse fill="#f1f8e9" stroke="#66bb6a" stroke-width="2" cx="152" cy="-201.61" rx="75.48" ry="31.11"/>
<text xml:space="preserve" text-anchor="start" x="106.62" y="-210.11" font-family="Arial" font-size="10.00" fill="#388e3c">Component Validator</text>
<text xml:space="preserve" text-anchor="start" x="106.62" y="-198.11" font-family="Arial" font-size="10.00" fill="#388e3c">Pattern Recognition</text>
<text xml:space="preserve" text-anchor="middle" x="152" y="-186.11" font-family="Arial" font-size="10.00" fill="#388e3c">Learning Validation</text>
</g>
<!-- adaptive_center&#45;&gt;adaptive_validator -->
<g id="edge10" class="edge">
<title>adaptive_center&#45;&gt;adaptive_validator</title>
<path fill="none" stroke="#4caf50" stroke-width="2" d="M281.04,-314.45C254.99,-291.88 220.75,-262.2 194.08,-239.09"/>
<polygon fill="#4caf50" stroke="#4caf50" stroke-width="2" points="196.4,-236.47 186.56,-232.56 191.82,-241.76 196.4,-236.47"/>
<text xml:space="preserve" text-anchor="middle" x="252.5" y="-270.68" font-family="Arial" font-size="9.00">Validate</text>
</g>
<!-- cognitive_error -->
<g id="node6" class="node">
<title>cognitive_error</title>
<path fill="#ffebee" stroke="#ef5350" stroke-width="2" d="M643.77,-83.76C643.77,-83.76 549.73,-48.24 549.73,-48.24 544.11,-46.12 544.11,-41.88 549.73,-39.76 549.73,-39.76 643.77,-4.24 643.77,-4.24 649.39,-2.12 660.61,-2.12 666.23,-4.24 666.23,-4.24 760.27,-39.76 760.27,-39.76 765.89,-41.88 765.89,-46.12 760.27,-48.24 760.27,-48.24 666.23,-83.76 666.23,-83.76 660.61,-85.88 649.39,-85.88 643.77,-83.76"/>
<text xml:space="preserve" text-anchor="start" x="562.11" y="-52.5" font-family="Arial" font-size="10.00" fill="#c62828">Error Handler</text>
<text xml:space="preserve" text-anchor="start" x="562.11" y="-40.5" font-family="Arial" font-size="10.00" fill="#c62828">Cognitive Faults</text>
<text xml:space="preserve" text-anchor="middle" x="655" y="-28.5" font-family="Arial" font-size="10.00" fill="#c62828">Recovery Mechanisms</text>
</g>
<!-- cognitive_validator&#45;&gt;cognitive_error -->
<g id="edge13" class="edge">
<title>cognitive_validator&#45;&gt;cognitive_error</title>
<path fill="none" stroke="#ef5350" stroke-width="2" stroke-dasharray="5,2" d="M593.83,-170.24C604.46,-148.48 619,-118.71 631.24,-93.66"/>
<polygon fill="#ef5350" stroke="#ef5350" stroke-width="2" points="634.28,-95.4 635.52,-84.88 627.99,-92.33 634.28,-95.4"/>
<text xml:space="preserve" text-anchor="middle" x="643.6" y="-125.95" font-family="Arial" font-size="9.00">Validation Fail</text>
</g>
<!-- l1_genetic -->
<g id="node11" class="node">
<title>l1_genetic</title>
<path fill="#fce4ec" stroke="#e91e63" stroke-width="2" d="M483.5,-72C483.5,-72 374.5,-72 374.5,-72 368.5,-72 362.5,-66 362.5,-60 362.5,-60 362.5,-28 362.5,-28 362.5,-22 368.5,-16 374.5,-16 374.5,-16 483.5,-16 483.5,-16 489.5,-16 495.5,-22 495.5,-28 495.5,-28 495.5,-60 495.5,-60 495.5,-66 489.5,-72 483.5,-72"/>
<text xml:space="preserve" text-anchor="start" x="370.5" y="-58.5" font-family="Arial" font-size="10.00" fill="#880e4f">L1: Genetic Code</text>
<text xml:space="preserve" text-anchor="start" x="370.5" y="-46.5" font-family="Arial" font-size="10.00" fill="#880e4f">Pure Algorithmic Functions</text>
<text xml:space="preserve" text-anchor="start" x="370.5" y="-34.5" font-family="Arial" font-size="10.00" fill="#880e4f">Stateless Transformations</text>
<text xml:space="preserve" text-anchor="middle" x="429" y="-22.5" font-family="Arial" font-size="10.00" fill="#880e4f">Lock&#45;free Operations</text>
</g>
<!-- cognitive_validator&#45;&gt;l1_genetic -->
<g id="edge5" class="edge">
<title>cognitive_validator&#45;&gt;l1_genetic</title>
<path fill="none" stroke="#e91e63" stroke-width="2" d="M551.14,-171.71C526.81,-146.47 491.35,-109.69 464.9,-82.25"/>
<polygon fill="#e91e63" stroke="#e91e63" stroke-width="2" points="467.52,-79.91 458.06,-75.14 462.48,-84.77 467.52,-79.91"/>
<text xml:space="preserve" text-anchor="middle" x="553.11" y="-125.95" font-family="Arial" font-size="9.00">Call Pure Functions</text>
</g>
<!-- behavioral_error -->
<g id="node8" class="node">
<title>behavioral_error</title>
<path fill="#ffebee" stroke="#ef5350" stroke-width="2" d="M926.95,-83.31C926.95,-83.31 845.3,-48.69 845.3,-48.69 839.77,-46.34 839.77,-41.66 845.3,-39.31 845.3,-39.31 926.95,-4.69 926.95,-4.69 932.48,-2.34 943.52,-2.34 949.05,-4.69 949.05,-4.69 1030.7,-39.31 1030.7,-39.31 1036.23,-41.66 1036.23,-46.34 1030.7,-48.69 1030.7,-48.69 949.05,-83.31 949.05,-83.31 943.52,-85.66 932.48,-85.66 926.95,-83.31"/>
<text xml:space="preserve" text-anchor="start" x="856.15" y="-52.5" font-family="Arial" font-size="10.00" fill="#c62828">Error Handler</text>
<text xml:space="preserve" text-anchor="start" x="856.15" y="-40.5" font-family="Arial" font-size="10.00" fill="#c62828">Behavioral Conflicts</text>
<text xml:space="preserve" text-anchor="middle" x="938" y="-28.5" font-family="Arial" font-size="10.00" fill="#c62828">Action Recovery</text>
</g>
<!-- behavioral_validator&#45;&gt;behavioral_error -->
<g id="edge14" class="edge">
<title>behavioral_validator&#45;&gt;behavioral_error</title>
<path fill="none" stroke="#ef5350" stroke-width="2" stroke-dasharray="5,2" d="M903.5,-169.87C909.27,-148.98 917.05,-120.83 923.76,-96.55"/>
<polygon fill="#ef5350" stroke="#ef5350" stroke-width="2" points="927.05,-97.75 926.34,-87.18 920.31,-95.89 927.05,-97.75"/>
<text xml:space="preserve" text-anchor="middle" x="944.09" y="-125.95" font-family="Arial" font-size="9.00">Validation Fail</text>
</g>
<!-- behavioral_validator&#45;&gt;l1_genetic -->
<g id="edge8" class="edge">
<title>behavioral_validator&#45;&gt;l1_genetic</title>
<path fill="none" stroke="#e91e63" stroke-width="2" d="M857.05,-173.34C831.64,-156.44 796.78,-135.78 763,-124 658.67,-87.61 622.57,-120.65 517,-88 508.5,-85.37 499.79,-82.02 491.33,-78.35"/>
<polygon fill="#e91e63" stroke="#e91e63" stroke-width="2" points="492.87,-75.21 482.31,-74.25 489.97,-81.58 492.87,-75.21"/>
<text xml:space="preserve" text-anchor="middle" x="826.23" y="-125.95" font-family="Arial" font-size="9.00">Call Pure Functions</text>
</g>
<!-- adaptive_error -->
<g id="node10" class="node">
<title>adaptive_error</title>
<path fill="#ffebee" stroke="#ef5350" stroke-width="2" d="M89.02,-83.17C89.02,-83.17 10.98,-48.83 10.98,-48.83 5.49,-46.42 5.49,-41.58 10.98,-39.17 10.98,-39.17 89.02,-4.83 89.02,-4.83 94.51,-2.42 105.49,-2.42 110.98,-4.83 110.98,-4.83 189.02,-39.17 189.02,-39.17 194.51,-41.58 194.51,-46.42 189.02,-48.83 189.02,-48.83 110.98,-83.17 110.98,-83.17 105.49,-85.58 94.51,-85.58 89.02,-83.17"/>
<text xml:space="preserve" text-anchor="start" x="21.4" y="-52.5" font-family="Arial" font-size="10.00" fill="#c62828">Error Handler</text>
<text xml:space="preserve" text-anchor="start" x="21.4" y="-40.5" font-family="Arial" font-size="10.00" fill="#c62828">Adaptation Failures</text>
<text xml:space="preserve" text-anchor="middle" x="100" y="-28.5" font-family="Arial" font-size="10.00" fill="#c62828">Learning Recovery</text>
</g>
<!-- adaptive_validator&#45;&gt;adaptive_error -->
<g id="edge15" class="edge">
<title>adaptive_validator&#45;&gt;adaptive_error</title>
<path fill="none" stroke="#ef5350" stroke-width="2" stroke-dasharray="5,2" d="M120.32,-172.69C110.31,-161.88 100.5,-148.69 95.25,-134.5 90.96,-122.91 89.79,-109.9 90.21,-97.46"/>
<polygon fill="#ef5350" stroke="#ef5350" stroke-width="2" points="93.68,-98.05 90.94,-87.82 86.7,-97.52 93.68,-98.05"/>
<text xml:space="preserve" text-anchor="middle" x="124.12" y="-125.95" font-family="Arial" font-size="9.00">Validation Fail</text>
</g>
<!-- adaptive_validator&#45;&gt;l1_genetic -->
<g id="edge11" class="edge">
<title>adaptive_validator&#45;&gt;l1_genetic</title>
<path fill="none" stroke="#e91e63" stroke-width="2" d="M165.28,-170.18C173.49,-154.47 185.41,-136.12 200.75,-124 243.62,-90.13 301.99,-70.27 348.96,-58.94"/>
<polygon fill="#e91e63" stroke="#e91e63" stroke-width="2" points="349.67,-62.36 358.63,-56.71 348.1,-55.54 349.67,-62.36"/>
<text xml:space="preserve" text-anchor="middle" x="240.88" y="-125.95" font-family="Arial" font-size="9.00">Call Pure Functions</text>
</g>
<!-- l1_genetic&#45;&gt;cognitive_center -->
<g id="edge6" class="edge">
<title>l1_genetic&#45;&gt;cognitive_center</title>
<path fill="none" stroke="#e91e63" stroke-width="2" d="M427.95,-72.8C427.49,-110.41 430.07,-178.99 451.25,-232.73 461.55,-258.85 479.25,-284.4 495.82,-304.8"/>
<polygon fill="#e91e63" stroke="#e91e63" stroke-width="2" points="493.04,-306.93 502.14,-312.36 498.41,-302.44 493.04,-306.93"/>
<text xml:space="preserve" text-anchor="middle" x="466.62" y="-198.31" font-family="Arial" font-size="9.00">Results</text>
</g>
<!-- l1_genetic&#45;&gt;behavioral_center -->
<g id="edge9" class="edge">
<title>l1_genetic&#45;&gt;behavioral_center</title>
<path fill="none" stroke="#e91e63" stroke-width="2" d="M480.7,-72.81C492.41,-78.39 504.95,-83.81 517,-88 587.89,-112.65 628.58,-71.27 682,-124 729.12,-170.51 737.03,-250.75 736.75,-301.57"/>
<polygon fill="#e91e63" stroke="#e91e63" stroke-width="2" points="733.25,-301.35 736.55,-311.42 740.25,-301.49 733.25,-301.35"/>
<text xml:space="preserve" text-anchor="middle" x="746.57" y="-198.31" font-family="Arial" font-size="9.00">Results</text>
</g>
<!-- l1_genetic&#45;&gt;adaptive_center -->
<g id="edge12" class="edge">
<title>l1_genetic&#45;&gt;adaptive_center</title>
<path fill="none" stroke="#e91e63" stroke-width="2" d="M418.97,-72.89C400.17,-125.21 359.44,-238.52 336.52,-302.27"/>
<polygon fill="#e91e63" stroke="#e91e63" stroke-width="2" points="333.3,-300.88 333.21,-311.48 339.89,-303.25 333.3,-300.88"/>
<text xml:space="preserve" text-anchor="middle" x="398.92" y="-198.31" font-family="Arial" font-size="9.00">Results</text>
</g>
<!-- coordination -->
<g id="node12" class="node">
<title>coordination</title>
<polygon fill="#f3e5f5" stroke="#7b1fa2" stroke-width="2" points="489.38,-557.73 340.62,-557.73 340.62,-465.73 495.38,-465.73 495.38,-551.73 489.38,-557.73"/>
<polyline fill="none" stroke="#7b1fa2" stroke-width="2" points="489.38,-557.73 489.38,-551.73"/>
<polyline fill="none" stroke="#7b1fa2" stroke-width="2" points="495.38,-551.73 489.38,-551.73"/>
<text xml:space="preserve" text-anchor="start" x="348.62" y="-544.23" font-family="Arial" font-size="10.00" fill="#4a148c">Neural Coordination Framework</text>
<text xml:space="preserve" text-anchor="start" x="348.62" y="-532.23" font-family="Arial" font-size="10.00" fill="#4a148c">• No shared mutable state</text>
<text xml:space="preserve" text-anchor="start" x="348.62" y="-520.23" font-family="Arial" font-size="10.00" fill="#4a148c">• Pure L1 calls only</text>
<text xml:space="preserve" text-anchor="start" x="348.62" y="-508.23" font-family="Arial" font-size="10.00" fill="#4a148c">• Component&#45;specific validators</text>
<text xml:space="preserve" text-anchor="start" x="348.62" y="-496.23" font-family="Arial" font-size="10.00" fill="#4a148c">• Atomic state transitions</text>
<text xml:space="preserve" text-anchor="start" x="348.62" y="-484.23" font-family="Arial" font-size="10.00" fill="#4a148c">• Error containment per center</text>
<text xml:space="preserve" text-anchor="middle" x="418" y="-472.23" font-family="Arial" font-size="10.00" fill="#4a148c">• Independent lifecycles</text>
</g>
<!-- coordination&#45;&gt;cognitive_center -->
<g id="edge16" class="edge">
<title>coordination&#45;&gt;cognitive_center</title>
<path fill="none" stroke="#7b1fa2" stroke-width="2" stroke-dasharray="1,5" d="M424.89,-464.9C428.75,-449.44 434.74,-432.7 444,-419.23 450.8,-409.33 459.48,-400.28 468.78,-392.22"/>
<polygon fill="#7b1fa2" stroke="#7b1fa2" stroke-width="2" points="470.75,-395.13 476.3,-386.1 466.33,-389.7 470.75,-395.13"/>
</g>
<!-- coordination&#45;&gt;behavioral_center -->
<g id="edge17" class="edge">
<title>coordination&#45;&gt;behavioral_center</title>
<path fill="none" stroke="#7b1fa2" stroke-width="2" stroke-dasharray="1,5" d="M446.57,-464.95C458.98,-448.38 474.86,-430.89 493,-419.23 545.59,-385.41 568.94,-400.6 629,-383.23 636.06,-381.18 643.36,-379.01 650.68,-376.79"/>
<polygon fill="#7b1fa2" stroke="#7b1fa2" stroke-width="2" points="651.53,-380.19 660.07,-373.92 649.49,-373.5 651.53,-380.19"/>
</g>
<!-- coordination&#45;&gt;adaptive_center -->
<g id="edge18" class="edge">
<title>coordination&#45;&gt;adaptive_center</title>
<path fill="none" stroke="#7b1fa2" stroke-width="2" stroke-dasharray="1,5" d="M389.92,-464.73C376.53,-442.8 360.57,-416.67 347.29,-394.91"/>
<polygon fill="#7b1fa2" stroke="#7b1fa2" stroke-width="2" points="350.39,-393.27 342.19,-386.56 344.41,-396.92 350.39,-393.27"/>
</g>
</g>
</svg>
