<?xml version="1.0" encoding="UTF-8" standalone="no"?>
<!DOCTYPE svg PUBLIC "-//W3C//DTD SVG 1.1//EN"
 "http://www.w3.org/Graphics/SVG/1.1/DTD/svg11.dtd">
<!-- Generated by graphviz version 14.0.2 (20251019.1705)
 -->
<!-- Title: L4Orchestration Pages: 1 -->
<svg width="889pt" height="1037pt"
 viewBox="0.00 0.00 889.00 1037.00" xmlns="http://www.w3.org/2000/svg" xmlns:xlink="http://www.w3.org/1999/xlink">
<g id="graph0" class="graph" transform="scale(1 1) rotate(0) translate(4 1032.67)">
<title>L4Orchestration</title>
<polygon fill="#e8f4f8" stroke="none" points="-4,4 -4,-1032.67 885.05,-1032.67 885.05,4 -4,4"/>
<text xml:space="preserve" text-anchor="middle" x="440.53" y="-1013.27" font-family="Arial" font-size="12.00" fill="#2e86ab">L4 Conscious Mind: Orchestration &amp; Unified Behavior</text>
<!-- api_input -->
<g id="node1" class="node">
<title>api_input</title>
<ellipse fill="#ffebee" stroke="#d32f2f" stroke-width="2" cx="543.55" cy="-975.31" rx="69.65" ry="31.11"/>
<text xml:space="preserve" text-anchor="start" x="502.3" y="-983.81" font-family="Arial" font-size="10.00" fill="#b71c1c">External API Call</text>
<text xml:space="preserve" text-anchor="start" x="502.3" y="-971.81" font-family="Arial" font-size="10.00" fill="#b71c1c">User Request</text>
<text xml:space="preserve" text-anchor="middle" x="543.55" y="-959.81" font-family="Arial" font-size="10.00" fill="#b71c1c">System Integration</text>
</g>
<!-- conscious_mind -->
<g id="node2" class="node">
<title>conscious_mind</title>
<path fill="#e8f4f8" stroke="#2e86ab" stroke-width="2" d="M592.8,-861.7C592.8,-861.7 494.3,-861.7 494.3,-861.7 488.3,-861.7 482.3,-855.7 482.3,-849.7 482.3,-849.7 482.3,-793.7 482.3,-793.7 482.3,-787.7 488.3,-781.7 494.3,-781.7 494.3,-781.7 592.8,-781.7 592.8,-781.7 598.8,-781.7 604.8,-787.7 604.8,-793.7 604.8,-793.7 604.8,-849.7 604.8,-849.7 604.8,-855.7 598.8,-861.7 592.8,-861.7"/>
<text xml:space="preserve" text-anchor="start" x="490.3" y="-848.2" font-family="Arial" font-size="10.00" fill="#1e5f74">L4: Conscious Mind</text>
<text xml:space="preserve" text-anchor="start" x="490.3" y="-836.2" font-family="Arial" font-size="10.00" fill="#1e5f74">Orchestration Layer</text>
<text xml:space="preserve" text-anchor="start" x="490.3" y="-824.2" font-family="Arial" font-size="10.00" fill="#1e5f74">• Factory Methods</text>
<text xml:space="preserve" text-anchor="start" x="490.3" y="-812.2" font-family="Arial" font-size="10.00" fill="#1e5f74">• Error Aggregation</text>
<text xml:space="preserve" text-anchor="start" x="490.3" y="-800.2" font-family="Arial" font-size="10.00" fill="#1e5f74">• Component Ownership</text>
<text xml:space="preserve" text-anchor="middle" x="543.55" y="-788.2" font-family="Arial" font-size="10.00" fill="#1e5f74">• API Design</text>
</g>
<!-- api_input&#45;&gt;conscious_mind -->
<g id="edge1" class="edge">
<title>api_input&#45;&gt;conscious_mind</title>
<path fill="none" stroke="#d32f2f" stroke-width="2" d="M543.55,-943.26C543.55,-923.78 543.55,-898.16 543.55,-875.54"/>
<polygon fill="#d32f2f" stroke="#d32f2f" stroke-width="2" points="547.05,-875.67 543.55,-865.67 540.05,-875.67 547.05,-875.67"/>
<text xml:space="preserve" text-anchor="middle" x="569.05" y="-899.65" font-family="Arial" font-size="9.00">API Request</text>
</g>
<!-- validation_gate -->
<g id="node3" class="node">
<title>validation_gate</title>
<path fill="#fff3e0" stroke="#f57c00" stroke-width="2" d="M320.05,-699.2C320.05,-699.2 229.05,-699.2 229.05,-699.2 223.05,-699.2 217.05,-693.2 217.05,-687.2 217.05,-687.2 217.05,-643.2 217.05,-643.2 217.05,-637.2 223.05,-631.2 229.05,-631.2 229.05,-631.2 320.05,-631.2 320.05,-631.2 326.05,-631.2 332.05,-637.2 332.05,-643.2 332.05,-643.2 332.05,-687.2 332.05,-687.2 332.05,-693.2 326.05,-699.2 320.05,-699.2"/>
<text xml:space="preserve" text-anchor="start" x="225.05" y="-685.7" font-family="Arial" font-size="10.00" fill="#e65100">[R3] Validate API input</text>
<text xml:space="preserve" text-anchor="start" x="225.05" y="-673.7" font-family="Arial" font-size="10.00" fill="#e65100">before passing to L3</text>
<text xml:space="preserve" text-anchor="start" x="225.05" y="-661.7" font-family="Arial" font-size="10.00" fill="#e65100">Input sanitization</text>
<text xml:space="preserve" text-anchor="start" x="225.05" y="-649.7" font-family="Arial" font-size="10.00" fill="#e65100">Parameter validation</text>
<text xml:space="preserve" text-anchor="middle" x="274.55" y="-637.7" font-family="Arial" font-size="10.00" fill="#e65100">Security checks</text>
</g>
<!-- conscious_mind&#45;&gt;validation_gate -->
<g id="edge2" class="edge">
<title>conscious_mind&#45;&gt;validation_gate</title>
<path fill="none" stroke="#f57c00" stroke-width="2" d="M481.38,-810.41C434.98,-800.24 372.06,-780.91 326.8,-745.7 314.91,-736.44 304.85,-723.68 296.84,-711.09"/>
<polygon fill="#f57c00" stroke="#f57c00" stroke-width="2" points="300,-709.56 291.87,-702.76 293.99,-713.14 300,-709.56"/>
<text xml:space="preserve" text-anchor="middle" x="352.68" y="-737.15" font-family="Arial" font-size="9.00">[R3] Validate</text>
</g>
<!-- factory_minimal -->
<g id="node11" class="node">
<title>factory_minimal</title>
<path fill="#e1f5fe" stroke="#0277bd" stroke-width="2" d="M494.93,-693.2C494.93,-693.2 394.18,-693.2 394.18,-693.2 388.18,-693.2 382.18,-687.2 382.18,-681.2 382.18,-681.2 382.18,-649.2 382.18,-649.2 382.18,-643.2 388.18,-637.2 394.18,-637.2 394.18,-637.2 494.93,-637.2 494.93,-637.2 500.93,-637.2 506.93,-643.2 506.93,-649.2 506.93,-649.2 506.93,-681.2 506.93,-681.2 506.93,-687.2 500.93,-693.2 494.93,-693.2"/>
<text xml:space="preserve" text-anchor="start" x="390.18" y="-679.7" font-family="Arial" font-size="10.00" fill="#01579b">Factory: Minimal</text>
<text xml:space="preserve" text-anchor="start" x="390.18" y="-667.7" font-family="Arial" font-size="10.00" fill="#01579b">createMinimalOrganism()</text>
<text xml:space="preserve" text-anchor="start" x="390.18" y="-655.7" font-family="Arial" font-size="10.00" fill="#01579b">Basic configuration</text>
<text xml:space="preserve" text-anchor="middle" x="444.55" y="-643.7" font-family="Arial" font-size="10.00" fill="#01579b">Essential components</text>
</g>
<!-- conscious_mind&#45;&gt;factory_minimal -->
<g id="edge15" class="edge">
<title>conscious_mind&#45;&gt;factory_minimal</title>
<path fill="none" stroke="#0277bd" stroke-width="2" stroke-dasharray="1,5" d="M481.43,-806.3C449.34,-795.37 412.98,-776.74 393.8,-745.7 385.3,-731.93 390.92,-716.95 401.03,-703.74"/>
<polygon fill="#0277bd" stroke="#0277bd" stroke-width="2" points="403.57,-706.15 407.49,-696.31 398.29,-701.56 403.57,-706.15"/>
<text xml:space="preserve" text-anchor="middle" x="407.68" y="-737.15" font-family="Arial" font-size="9.00">Create</text>
</g>
<!-- factory_adaptive -->
<g id="node12" class="node">
<title>factory_adaptive</title>
<path fill="#e1f5fe" stroke="#0277bd" stroke-width="2" d="M674.18,-693.2C674.18,-693.2 568.93,-693.2 568.93,-693.2 562.93,-693.2 556.93,-687.2 556.93,-681.2 556.93,-681.2 556.93,-649.2 556.93,-649.2 556.93,-643.2 562.93,-637.2 568.93,-637.2 568.93,-637.2 674.18,-637.2 674.18,-637.2 680.18,-637.2 686.18,-643.2 686.18,-649.2 686.18,-649.2 686.18,-681.2 686.18,-681.2 686.18,-687.2 680.18,-693.2 674.18,-693.2"/>
<text xml:space="preserve" text-anchor="start" x="564.93" y="-679.7" font-family="Arial" font-size="10.00" fill="#01579b">Factory: Adaptive</text>
<text xml:space="preserve" text-anchor="start" x="564.93" y="-667.7" font-family="Arial" font-size="10.00" fill="#01579b">createAdaptiveOrganism()</text>
<text xml:space="preserve" text-anchor="start" x="564.93" y="-655.7" font-family="Arial" font-size="10.00" fill="#01579b">Context&#45;aware creation</text>
<text xml:space="preserve" text-anchor="middle" x="621.55" y="-643.7" font-family="Arial" font-size="10.00" fill="#01579b">Advanced configuration</text>
</g>
<!-- conscious_mind&#45;&gt;factory_adaptive -->
<g id="edge16" class="edge">
<title>conscious_mind&#45;&gt;factory_adaptive</title>
<path fill="none" stroke="#0277bd" stroke-width="2" stroke-dasharray="1,5" d="M563.64,-780.91C575.33,-757.76 590,-728.7 601.65,-705.61"/>
<polygon fill="#0277bd" stroke="#0277bd" stroke-width="2" points="604.69,-707.36 606.08,-696.85 598.44,-704.2 604.69,-707.36"/>
<text xml:space="preserve" text-anchor="middle" x="598.77" y="-737.15" font-family="Arial" font-size="9.00">Create</text>
</g>
<!-- ownership -->
<g id="node13" class="node">
<title>ownership</title>
<polygon fill="#ffffff" stroke="#616161" stroke-width="2" points="875.05,-699.2 736.05,-699.2 736.05,-631.2 881.05,-631.2 881.05,-693.2 875.05,-699.2"/>
<polyline fill="none" stroke="#616161" stroke-width="2" points="875.05,-699.2 875.05,-693.2"/>
<polyline fill="none" stroke="#616161" stroke-width="2" points="881.05,-693.2 875.05,-693.2"/>
<text xml:space="preserve" text-anchor="start" x="744.05" y="-685.7" font-family="Arial" font-size="10.00" fill="#424242">Ownership Model</text>
<text xml:space="preserve" text-anchor="start" x="744.05" y="-673.7" font-family="Arial" font-size="10.00" fill="#424242">L4 owns L3 by value</text>
<text xml:space="preserve" text-anchor="start" x="744.05" y="-661.7" font-family="Arial" font-size="10.00" fill="#424242">[R1] No shared mutable state</text>
<text xml:space="preserve" text-anchor="start" x="744.05" y="-649.7" font-family="Arial" font-size="10.00" fill="#424242">[R2] Complete isolation</text>
<text xml:space="preserve" text-anchor="middle" x="808.55" y="-637.7" font-family="Arial" font-size="10.00" fill="#424242">Composition guarantees</text>
</g>
<!-- conscious_mind&#45;&gt;ownership -->
<g id="edge19" class="edge">
<title>conscious_mind&#45;&gt;ownership</title>
<path fill="none" stroke="#616161" stroke-width="2" stroke-dasharray="5,2" d="M605.56,-795.57C636.17,-782.24 673.16,-764.7 704.55,-745.7 722.91,-734.59 741.87,-720.86 758.49,-707.95"/>
<polygon fill="#616161" stroke="#616161" stroke-width="2" points="760.45,-710.87 766.14,-701.93 756.12,-705.37 760.45,-710.87"/>
</g>
<!-- l3_components -->
<g id="node4" class="node">
<title>l3_components</title>
<path fill="#e8f5e8" stroke="#4caf50" stroke-width="2" d="M358.3,-538.7C358.3,-544.21 320.77,-548.7 274.55,-548.7 228.34,-548.7 190.8,-544.21 190.8,-538.7 190.8,-538.7 190.8,-448.7 190.8,-448.7 190.8,-443.18 228.34,-438.7 274.55,-438.7 320.77,-438.7 358.3,-443.18 358.3,-448.7 358.3,-448.7 358.3,-538.7 358.3,-538.7"/>
<path fill="none" stroke="#4caf50" stroke-width="2" d="M358.3,-538.7C358.3,-533.18 320.77,-528.7 274.55,-528.7 228.34,-528.7 190.8,-533.18 190.8,-538.7"/>
<text xml:space="preserve" text-anchor="start" x="198.8" y="-520.2" font-family="Arial" font-size="10.00" fill="#2e7d32">L3 Components</text>
<text xml:space="preserve" text-anchor="start" x="198.8" y="-508.2" font-family="Arial" font-size="10.00" fill="#2e7d32">(Owned by L4)</text>
<text xml:space="preserve" text-anchor="start" x="198.8" y="-496.2" font-family="Arial" font-size="10.00" fill="#2e7d32">• Cognitive Center</text>
<text xml:space="preserve" text-anchor="start" x="198.8" y="-484.2" font-family="Arial" font-size="10.00" fill="#2e7d32">• Behavioral Center</text>
<text xml:space="preserve" text-anchor="start" x="198.8" y="-472.2" font-family="Arial" font-size="10.00" fill="#2e7d32">• Adaptive Center</text>
<text xml:space="preserve" text-anchor="middle" x="274.55" y="-460.2" font-family="Arial" font-size="10.00" fill="#2e7d32">• Independent stateful components</text>
</g>
<!-- validation_gate&#45;&gt;l3_components -->
<g id="edge3" class="edge">
<title>validation_gate&#45;&gt;l3_components</title>
<path fill="none" stroke="#4caf50" stroke-width="2" d="M274.55,-630.3C274.55,-610.82 274.55,-585.65 274.55,-562.29"/>
<polygon fill="#4caf50" stroke="#4caf50" stroke-width="2" points="278.05,-562.58 274.55,-552.58 271.05,-562.58 278.05,-562.58"/>
<text xml:space="preserve" text-anchor="middle" x="304.93" y="-586.65" font-family="Arial" font-size="9.00">Validated Input</text>
</g>
<!-- cognitive_center -->
<g id="node5" class="node">
<title>cognitive_center</title>
<path fill="#f1f8e9" stroke="#66bb6a" stroke-width="2" d="M148.93,-356.2C148.93,-356.2 42.18,-356.2 42.18,-356.2 36.18,-356.2 30.18,-350.2 30.18,-344.2 30.18,-344.2 30.18,-324.2 30.18,-324.2 30.18,-318.2 36.18,-312.2 42.18,-312.2 42.18,-312.2 148.93,-312.2 148.93,-312.2 154.93,-312.2 160.93,-318.2 160.93,-324.2 160.93,-324.2 160.93,-344.2 160.93,-344.2 160.93,-350.2 154.93,-356.2 148.93,-356.2"/>
<text xml:space="preserve" text-anchor="start" x="38.18" y="-342.7" font-family="Arial" font-size="10.00" fill="#388e3c">Cognitive Center</text>
<text xml:space="preserve" text-anchor="start" x="38.18" y="-330.7" font-family="Arial" font-size="10.00" fill="#388e3c">Reasoning &amp; Logic</text>
<text xml:space="preserve" text-anchor="middle" x="95.55" y="-318.7" font-family="Arial" font-size="10.00" fill="#388e3c">Atomic state management</text>
</g>
<!-- l3_components&#45;&gt;cognitive_center -->
<g id="edge4" class="edge">
<title>l3_components&#45;&gt;cognitive_center</title>
<path fill="none" stroke="#66bb6a" stroke-width="2" d="M214.45,-439.81C186.37,-415.1 153.94,-386.57 130.05,-365.55"/>
<polygon fill="#66bb6a" stroke="#66bb6a" stroke-width="2" points="132.47,-363.01 122.65,-359.04 127.84,-368.27 132.47,-363.01"/>
<text xml:space="preserve" text-anchor="middle" x="187.77" y="-394.15" font-family="Arial" font-size="9.00">Delegate</text>
</g>
<!-- behavioral_center -->
<g id="node6" class="node">
<title>behavioral_center</title>
<path fill="#f1f8e9" stroke="#66bb6a" stroke-width="2" d="M489.3,-356.2C489.3,-356.2 399.8,-356.2 399.8,-356.2 393.8,-356.2 387.8,-350.2 387.8,-344.2 387.8,-344.2 387.8,-324.2 387.8,-324.2 387.8,-318.2 393.8,-312.2 399.8,-312.2 399.8,-312.2 489.3,-312.2 489.3,-312.2 495.3,-312.2 501.3,-318.2 501.3,-324.2 501.3,-324.2 501.3,-344.2 501.3,-344.2 501.3,-350.2 495.3,-356.2 489.3,-356.2"/>
<text xml:space="preserve" text-anchor="start" x="395.8" y="-342.7" font-family="Arial" font-size="10.00" fill="#388e3c">Behavioral Center</text>
<text xml:space="preserve" text-anchor="start" x="395.8" y="-330.7" font-family="Arial" font-size="10.00" fill="#388e3c">Actions &amp; Responses</text>
<text xml:space="preserve" text-anchor="middle" x="444.55" y="-318.7" font-family="Arial" font-size="10.00" fill="#388e3c">Independent validation</text>
</g>
<!-- l3_components&#45;&gt;behavioral_center -->
<g id="edge5" class="edge">
<title>l3_components&#45;&gt;behavioral_center</title>
<path fill="none" stroke="#66bb6a" stroke-width="2" d="M332.11,-439.37C358.62,-414.81 389.13,-386.55 411.67,-365.66"/>
<polygon fill="#66bb6a" stroke="#66bb6a" stroke-width="2" points="413.94,-368.33 418.9,-358.97 409.18,-363.2 413.94,-368.33"/>
<text xml:space="preserve" text-anchor="middle" x="398.53" y="-394.15" font-family="Arial" font-size="9.00">Delegate</text>
</g>
<!-- adaptive_center -->
<g id="node7" class="node">
<title>adaptive_center</title>
<path fill="#f1f8e9" stroke="#66bb6a" stroke-width="2" d="M326.05,-356.2C326.05,-356.2 223.05,-356.2 223.05,-356.2 217.05,-356.2 211.05,-350.2 211.05,-344.2 211.05,-344.2 211.05,-324.2 211.05,-324.2 211.05,-318.2 217.05,-312.2 223.05,-312.2 223.05,-312.2 326.05,-312.2 326.05,-312.2 332.05,-312.2 338.05,-318.2 338.05,-324.2 338.05,-324.2 338.05,-344.2 338.05,-344.2 338.05,-350.2 332.05,-356.2 326.05,-356.2"/>
<text xml:space="preserve" text-anchor="start" x="219.05" y="-342.7" font-family="Arial" font-size="10.00" fill="#388e3c">Adaptive Center</text>
<text xml:space="preserve" text-anchor="start" x="219.05" y="-330.7" font-family="Arial" font-size="10.00" fill="#388e3c">Learning &amp; Adaptation</text>
<text xml:space="preserve" text-anchor="middle" x="274.55" y="-318.7" font-family="Arial" font-size="10.00" fill="#388e3c">Component&#45;specific rules</text>
</g>
<!-- l3_components&#45;&gt;adaptive_center -->
<g id="edge6" class="edge">
<title>l3_components&#45;&gt;adaptive_center</title>
<path fill="none" stroke="#66bb6a" stroke-width="2" d="M274.55,-438.05C274.55,-415.38 274.55,-389.77 274.55,-369.77"/>
<polygon fill="#66bb6a" stroke="#66bb6a" stroke-width="2" points="278.05,-369.96 274.55,-359.96 271.05,-369.96 278.05,-369.96"/>
<text xml:space="preserve" text-anchor="middle" x="293.3" y="-394.15" font-family="Arial" font-size="9.00">Delegate</text>
</g>
<!-- coordination_engine -->
<g id="node8" class="node">
<title>coordination_engine</title>
<path fill="#f3e5f5" stroke="#7b1fa2" stroke-width="2" d="M361.43,-229.7C361.43,-229.7 269.68,-229.7 269.68,-229.7 263.68,-229.7 257.68,-223.7 257.68,-217.7 257.68,-217.7 257.68,-173.7 257.68,-173.7 257.68,-167.7 263.68,-161.7 269.68,-161.7 269.68,-161.7 361.43,-161.7 361.43,-161.7 367.43,-161.7 373.43,-167.7 373.43,-173.7 373.43,-173.7 373.43,-217.7 373.43,-217.7 373.43,-223.7 367.43,-229.7 361.43,-229.7"/>
<text xml:space="preserve" text-anchor="start" x="265.68" y="-216.2" font-family="Arial" font-size="10.00" fill="#4a148c">Coordination Engine</text>
<text xml:space="preserve" text-anchor="start" x="265.68" y="-204.2" font-family="Arial" font-size="10.00" fill="#4a148c">• Orchestrate L3 calls</text>
<text xml:space="preserve" text-anchor="start" x="265.68" y="-192.2" font-family="Arial" font-size="10.00" fill="#4a148c">• Aggregate responses</text>
<text xml:space="preserve" text-anchor="start" x="265.68" y="-180.2" font-family="Arial" font-size="10.00" fill="#4a148c">• Handle errors</text>
<text xml:space="preserve" text-anchor="middle" x="315.55" y="-168.2" font-family="Arial" font-size="10.00" fill="#4a148c">• Maintain unified state</text>
</g>
<!-- cognitive_center&#45;&gt;coordination_engine -->
<g id="edge7" class="edge">
<title>cognitive_center&#45;&gt;coordination_engine</title>
<path fill="none" stroke="#7b1fa2" stroke-width="2" d="M130.54,-311.25C151.66,-298.02 179.13,-280.85 203.55,-265.7 218.39,-256.49 234.35,-246.63 249.44,-237.33"/>
<polygon fill="#7b1fa2" stroke="#7b1fa2" stroke-width="2" points="251,-240.48 257.67,-232.26 247.32,-234.52 251,-240.48"/>
<text xml:space="preserve" text-anchor="middle" x="239.55" y="-267.65" font-family="Arial" font-size="9.00">Cognitive Results</text>
</g>
<!-- error_aggregator -->
<g id="node9" class="node">
<title>error_aggregator</title>
<path fill="#ffebee" stroke="#ef5350" stroke-width="2" d="M120.68,-229.7C120.68,-229.7 24.43,-229.7 24.43,-229.7 18.43,-229.7 12.43,-223.7 12.43,-217.7 12.43,-217.7 12.43,-173.7 12.43,-173.7 12.43,-167.7 18.43,-161.7 24.43,-161.7 24.43,-161.7 120.68,-161.7 120.68,-161.7 126.68,-161.7 132.68,-167.7 132.68,-173.7 132.68,-173.7 132.68,-217.7 132.68,-217.7 132.68,-223.7 126.68,-229.7 120.68,-229.7"/>
<text xml:space="preserve" text-anchor="start" x="20.43" y="-216.2" font-family="Arial" font-size="10.00" fill="#c62828">Error Aggregator</text>
<text xml:space="preserve" text-anchor="start" x="20.43" y="-204.2" font-family="Arial" font-size="10.00" fill="#c62828">• Collect L3 errors</text>
<text xml:space="preserve" text-anchor="start" x="20.43" y="-192.2" font-family="Arial" font-size="10.00" fill="#c62828">• Thread&#45;local storage</text>
<text xml:space="preserve" text-anchor="start" x="20.43" y="-180.2" font-family="Arial" font-size="10.00" fill="#c62828">• Unified error reporting</text>
<text xml:space="preserve" text-anchor="middle" x="72.55" y="-168.2" font-family="Arial" font-size="10.00" fill="#c62828">• Recovery coordination</text>
</g>
<!-- cognitive_center&#45;&gt;error_aggregator -->
<g id="edge11" class="edge">
<title>cognitive_center&#45;&gt;error_aggregator</title>
<path fill="none" stroke="#ef5350" stroke-width="2" stroke-dasharray="5,2" d="M40.68,-311.27C26.09,-302.62 12.1,-291.11 3.8,-276.2 -3.26,-263.49 0.73,-251 9.58,-239.81"/>
<polygon fill="#ef5350" stroke="#ef5350" stroke-width="2" points="12.09,-242.24 16.38,-232.55 6.99,-237.45 12.09,-242.24"/>
<text xml:space="preserve" text-anchor="middle" x="16.18" y="-267.65" font-family="Arial" font-size="9.00">Errors</text>
</g>
<!-- behavioral_center&#45;&gt;coordination_engine -->
<g id="edge8" class="edge">
<title>behavioral_center&#45;&gt;coordination_engine</title>
<path fill="none" stroke="#7b1fa2" stroke-width="2" d="M451.43,-311.29C454.47,-297.27 455.76,-279.24 447.55,-265.7 433.8,-242.99 409.85,-227.4 386.1,-216.87"/>
<polygon fill="#7b1fa2" stroke="#7b1fa2" stroke-width="2" points="387.5,-213.66 376.92,-213.1 384.84,-220.14 387.5,-213.66"/>
<text xml:space="preserve" text-anchor="middle" x="490.4" y="-267.65" font-family="Arial" font-size="9.00">Behavioral Results</text>
</g>
<!-- behavioral_center&#45;&gt;error_aggregator -->
<g id="edge12" class="edge">
<title>behavioral_center&#45;&gt;error_aggregator</title>
<path fill="none" stroke="#ef5350" stroke-width="2" stroke-dasharray="5,2" d="M425.39,-311.51C410.94,-296.47 389.85,-277.15 367.55,-265.7 347.9,-255.6 226.98,-229.03 146.18,-211.97"/>
<polygon fill="#ef5350" stroke="#ef5350" stroke-width="2" points="147.05,-208.57 136.54,-209.94 145.61,-215.42 147.05,-208.57"/>
<text xml:space="preserve" text-anchor="middle" x="396.61" y="-267.65" font-family="Arial" font-size="9.00">Errors</text>
</g>
<!-- adaptive_center&#45;&gt;coordination_engine -->
<g id="edge9" class="edge">
<title>adaptive_center&#45;&gt;coordination_engine</title>
<path fill="none" stroke="#7b1fa2" stroke-width="2" d="M279.04,-311.45C281.96,-298.13 286.04,-280.81 290.55,-265.7 292.8,-258.18 295.41,-250.28 298.08,-242.62"/>
<polygon fill="#7b1fa2" stroke="#7b1fa2" stroke-width="2" points="301.34,-243.92 301.41,-233.33 294.75,-241.56 301.34,-243.92"/>
<text xml:space="preserve" text-anchor="middle" x="325.05" y="-267.65" font-family="Arial" font-size="9.00">Adaptive Results</text>
</g>
<!-- adaptive_center&#45;&gt;error_aggregator -->
<g id="edge13" class="edge">
<title>adaptive_center&#45;&gt;error_aggregator</title>
<path fill="none" stroke="#ef5350" stroke-width="2" stroke-dasharray="5,2" d="M210.19,-317.61C158.23,-304.44 92.38,-286.17 83.8,-276.2 75.99,-267.12 72.16,-255.18 70.51,-243.32"/>
<polygon fill="#ef5350" stroke="#ef5350" stroke-width="2" points="74.02,-243.33 69.73,-233.64 67.04,-243.89 74.02,-243.33"/>
<text xml:space="preserve" text-anchor="middle" x="96.18" y="-267.65" font-family="Arial" font-size="9.00">Errors</text>
</g>
<!-- unified_response -->
<g id="node10" class="node">
<title>unified_response</title>
<ellipse fill="#e8f4f8" stroke="#2e86ab" stroke-width="2" cx="315.55" cy="-39.6" rx="79.73" ry="39.6"/>
<text xml:space="preserve" text-anchor="start" x="267.18" y="-54.1" font-family="Arial" font-size="10.00" fill="#1e5f74">Unified API Response</text>
<text xml:space="preserve" text-anchor="start" x="267.18" y="-42.1" font-family="Arial" font-size="10.00" fill="#1e5f74">Coordinated Results</text>
<text xml:space="preserve" text-anchor="start" x="267.18" y="-30.1" font-family="Arial" font-size="10.00" fill="#1e5f74">Error Handling</text>
<text xml:space="preserve" text-anchor="middle" x="315.55" y="-18.1" font-family="Arial" font-size="10.00" fill="#1e5f74">Consistent Interface</text>
</g>
<!-- coordination_engine&#45;&gt;unified_response -->
<g id="edge10" class="edge">
<title>coordination_engine&#45;&gt;unified_response</title>
<path fill="none" stroke="#2e86ab" stroke-width="2" d="M315.55,-160.88C315.55,-140.96 315.55,-115.33 315.55,-92.86"/>
<polygon fill="#2e86ab" stroke="#2e86ab" stroke-width="2" points="319.05,-93.08 315.55,-83.08 312.05,-93.08 319.05,-93.08"/>
<text xml:space="preserve" text-anchor="middle" x="363.18" y="-117.15" font-family="Arial" font-size="9.00">Coordinated Response</text>
</g>
<!-- error_aggregator&#45;&gt;coordination_engine -->
<g id="edge14" class="edge">
<title>error_aggregator&#45;&gt;coordination_engine</title>
<path fill="none" stroke="#ef5350" stroke-width="2" d="M133.56,-195.7C167.24,-195.7 209.25,-195.7 244.42,-195.7"/>
<polygon fill="#ef5350" stroke="#ef5350" stroke-width="2" points="244.01,-199.2 254.01,-195.7 244.01,-192.2 244.01,-199.2"/>
<text xml:space="preserve" text-anchor="middle" x="195.18" y="-200.65" font-family="Arial" font-size="9.00">Aggregated Errors</text>
</g>
<!-- factory_minimal&#45;&gt;conscious_mind -->
<g id="edge17" class="edge">
<title>factory_minimal&#45;&gt;conscious_mind</title>
<path fill="none" stroke="#0277bd" stroke-width="2" stroke-dasharray="1,5" d="M462.47,-694.15C475.99,-715.26 494.92,-744.8 511.09,-770.03"/>
<polygon fill="#0277bd" stroke="#0277bd" stroke-width="2" points="508.08,-771.83 516.43,-778.36 513.98,-768.05 508.08,-771.83"/>
<text xml:space="preserve" text-anchor="middle" x="526.3" y="-737.15" font-family="Arial" font-size="9.00">Return Instance</text>
</g>
<!-- factory_adaptive&#45;&gt;conscious_mind -->
<g id="edge18" class="edge">
<title>factory_adaptive&#45;&gt;conscious_mind</title>
<path fill="none" stroke="#0277bd" stroke-width="2" stroke-dasharray="1,5" d="M628.42,-694.17C630.89,-709.93 631.58,-729.62 624.55,-745.7 620.51,-754.96 614.69,-763.59 608,-771.45"/>
<polygon fill="#0277bd" stroke="#0277bd" stroke-width="2" points="605.44,-769.06 601.2,-778.77 610.57,-773.83 605.44,-769.06"/>
<text xml:space="preserve" text-anchor="middle" x="660.16" y="-737.15" font-family="Arial" font-size="9.00">Return Instance</text>
</g>
</g>
</svg>
